<mxfile host="app.diagrams.net" modified="2024-06-04T13:12:57.162Z" agent="Mozilla/5.0 (Windows NT 10.0; Win64; x64) AppleWebKit/537.36 (KHTML, like Gecko) Chrome/125.0.0.0 Safari/537.36 Edg/125.0.0.0" etag="FnKBjpwtpupRe1POJvSc" version="24.4.13" type="github">
  <diagram name="Página-1" id="HzU6DnvcWr33lS5XU5_k">
    <mxGraphModel dx="2186" dy="1235" grid="0" gridSize="10" guides="1" tooltips="1" connect="1" arrows="1" fold="1" page="0" pageScale="1" pageWidth="827" pageHeight="1169" math="0" shadow="0">
      <root>
        <mxCell id="0" />
        <mxCell id="1" parent="0" />
        <mxCell id="RdHmfQNiQmY0ozg8PlWF-27" value="Fontooffice" style="swimlane;horizontal=0;whiteSpace=wrap;html=1;" vertex="1" parent="1">
          <mxGeometry x="-417" y="-90" width="1064" height="346" as="geometry" />
        </mxCell>
        <mxCell id="RdHmfQNiQmY0ozg8PlWF-4" value="" style="endArrow=classic;html=1;rounded=0;fontSize=12;startSize=8;endSize=8;curved=1;entryX=0;entryY=0.5;entryDx=0;entryDy=0;" edge="1" parent="RdHmfQNiQmY0ozg8PlWF-27" source="RdHmfQNiQmY0ozg8PlWF-6" target="RdHmfQNiQmY0ozg8PlWF-1">
          <mxGeometry width="50" height="50" relative="1" as="geometry">
            <mxPoint x="97" y="138.5" as="sourcePoint" />
            <mxPoint x="222" y="153.5" as="targetPoint" />
          </mxGeometry>
        </mxCell>
        <mxCell id="RdHmfQNiQmY0ozg8PlWF-6" value="" style="ellipse;whiteSpace=wrap;html=1;aspect=fixed;fillColor=#d5e8d4;strokeColor=#82b366;" vertex="1" parent="RdHmfQNiQmY0ozg8PlWF-27">
          <mxGeometry x="56" y="114.5" width="43" height="43" as="geometry" />
        </mxCell>
        <mxCell id="RdHmfQNiQmY0ozg8PlWF-9" value="" style="edgeStyle=none;curved=1;rounded=0;orthogonalLoop=1;jettySize=auto;html=1;fontSize=12;startSize=8;endSize=8;" edge="1" parent="RdHmfQNiQmY0ozg8PlWF-27" source="RdHmfQNiQmY0ozg8PlWF-1" target="RdHmfQNiQmY0ozg8PlWF-8">
          <mxGeometry relative="1" as="geometry" />
        </mxCell>
        <mxCell id="RdHmfQNiQmY0ozg8PlWF-1" value="Filtra Leads" style="rounded=0;whiteSpace=wrap;html=1;" vertex="1" parent="RdHmfQNiQmY0ozg8PlWF-27">
          <mxGeometry x="167" y="106" width="120" height="60" as="geometry" />
        </mxCell>
        <mxCell id="RdHmfQNiQmY0ozg8PlWF-68" value="" style="edgeStyle=none;curved=1;rounded=0;orthogonalLoop=1;jettySize=auto;html=1;fontSize=12;startSize=8;endSize=8;entryX=0;entryY=0.5;entryDx=0;entryDy=0;entryPerimeter=0;" edge="1" parent="RdHmfQNiQmY0ozg8PlWF-27" source="RdHmfQNiQmY0ozg8PlWF-8" target="RdHmfQNiQmY0ozg8PlWF-73">
          <mxGeometry relative="1" as="geometry" />
        </mxCell>
        <mxCell id="RdHmfQNiQmY0ozg8PlWF-8" value="Envia CSV" style="rounded=0;whiteSpace=wrap;html=1;" vertex="1" parent="RdHmfQNiQmY0ozg8PlWF-27">
          <mxGeometry x="407" y="106" width="120" height="60" as="geometry" />
        </mxCell>
        <mxCell id="RdHmfQNiQmY0ozg8PlWF-70" value="" style="edgeStyle=none;curved=1;rounded=0;orthogonalLoop=1;jettySize=auto;html=1;fontSize=12;startSize=8;endSize=8;" edge="1" parent="RdHmfQNiQmY0ozg8PlWF-27" source="RdHmfQNiQmY0ozg8PlWF-67" target="RdHmfQNiQmY0ozg8PlWF-69">
          <mxGeometry relative="1" as="geometry" />
        </mxCell>
        <mxCell id="RdHmfQNiQmY0ozg8PlWF-67" value="Recebe CSV SERASA" style="rounded=0;whiteSpace=wrap;html=1;" vertex="1" parent="RdHmfQNiQmY0ozg8PlWF-27">
          <mxGeometry x="647" y="106" width="120" height="60" as="geometry" />
        </mxCell>
        <mxCell id="RdHmfQNiQmY0ozg8PlWF-72" value="" style="edgeStyle=none;curved=1;rounded=0;orthogonalLoop=1;jettySize=auto;html=1;fontSize=12;startSize=8;endSize=8;" edge="1" parent="RdHmfQNiQmY0ozg8PlWF-27" source="RdHmfQNiQmY0ozg8PlWF-69" target="RdHmfQNiQmY0ozg8PlWF-71">
          <mxGeometry relative="1" as="geometry" />
        </mxCell>
        <mxCell id="RdHmfQNiQmY0ozg8PlWF-69" value="Importa no Power BI" style="rounded=0;whiteSpace=wrap;html=1;" vertex="1" parent="RdHmfQNiQmY0ozg8PlWF-27">
          <mxGeometry x="887" y="106" width="120" height="60" as="geometry" />
        </mxCell>
        <mxCell id="RdHmfQNiQmY0ozg8PlWF-71" value="Envia para o Salesforce" style="rounded=0;whiteSpace=wrap;html=1;" vertex="1" parent="RdHmfQNiQmY0ozg8PlWF-27">
          <mxGeometry x="887" y="210" width="120" height="60" as="geometry" />
        </mxCell>
        <mxCell id="RdHmfQNiQmY0ozg8PlWF-74" value="" style="edgeStyle=none;curved=1;rounded=0;orthogonalLoop=1;jettySize=auto;html=1;fontSize=12;startSize=8;endSize=8;" edge="1" parent="RdHmfQNiQmY0ozg8PlWF-27" source="RdHmfQNiQmY0ozg8PlWF-73" target="RdHmfQNiQmY0ozg8PlWF-67">
          <mxGeometry relative="1" as="geometry" />
        </mxCell>
        <mxCell id="RdHmfQNiQmY0ozg8PlWF-73" value="" style="points=[[0.145,0.145,0],[0.5,0,0],[0.855,0.145,0],[1,0.5,0],[0.855,0.855,0],[0.5,1,0],[0.145,0.855,0],[0,0.5,0]];shape=mxgraph.bpmn.event;html=1;verticalLabelPosition=bottom;labelBackgroundColor=#ffffff;verticalAlign=top;align=center;perimeter=ellipsePerimeter;outlineConnect=0;aspect=fixed;outline=throwing;symbol=general;" vertex="1" parent="RdHmfQNiQmY0ozg8PlWF-27">
          <mxGeometry x="572" y="117" width="38" height="38" as="geometry" />
        </mxCell>
        <mxCell id="RdHmfQNiQmY0ozg8PlWF-29" value="Serasa" style="swimlane;horizontal=0;whiteSpace=wrap;html=1;" vertex="1" parent="1">
          <mxGeometry x="-417" y="208" width="1064" height="287" as="geometry" />
        </mxCell>
        <mxCell id="RdHmfQNiQmY0ozg8PlWF-24" value="" style="edgeStyle=none;curved=1;rounded=0;orthogonalLoop=1;jettySize=auto;html=1;fontSize=12;startSize=8;endSize=8;" edge="1" parent="RdHmfQNiQmY0ozg8PlWF-29" source="RdHmfQNiQmY0ozg8PlWF-20" target="RdHmfQNiQmY0ozg8PlWF-23">
          <mxGeometry relative="1" as="geometry" />
        </mxCell>
        <mxCell id="RdHmfQNiQmY0ozg8PlWF-20" value="" style="ellipse;whiteSpace=wrap;html=1;aspect=fixed;fillColor=#d5e8d4;strokeColor=#82b366;" vertex="1" parent="RdHmfQNiQmY0ozg8PlWF-29">
          <mxGeometry x="56" y="113" width="42" height="42" as="geometry" />
        </mxCell>
        <mxCell id="RdHmfQNiQmY0ozg8PlWF-26" value="" style="edgeStyle=none;curved=1;rounded=0;orthogonalLoop=1;jettySize=auto;html=1;fontSize=12;startSize=8;endSize=8;" edge="1" parent="RdHmfQNiQmY0ozg8PlWF-29" source="RdHmfQNiQmY0ozg8PlWF-23" target="RdHmfQNiQmY0ozg8PlWF-25">
          <mxGeometry relative="1" as="geometry" />
        </mxCell>
        <mxCell id="RdHmfQNiQmY0ozg8PlWF-23" value="Recebe CSV" style="whiteSpace=wrap;html=1;" vertex="1" parent="RdHmfQNiQmY0ozg8PlWF-29">
          <mxGeometry x="179" y="104" width="120" height="60" as="geometry" />
        </mxCell>
        <mxCell id="RdHmfQNiQmY0ozg8PlWF-31" value="" style="edgeStyle=none;curved=1;rounded=0;orthogonalLoop=1;jettySize=auto;html=1;fontSize=12;startSize=8;endSize=8;" edge="1" parent="RdHmfQNiQmY0ozg8PlWF-29" source="RdHmfQNiQmY0ozg8PlWF-25" target="RdHmfQNiQmY0ozg8PlWF-30">
          <mxGeometry relative="1" as="geometry" />
        </mxCell>
        <mxCell id="RdHmfQNiQmY0ozg8PlWF-25" value="Executa análise" style="whiteSpace=wrap;html=1;" vertex="1" parent="RdHmfQNiQmY0ozg8PlWF-29">
          <mxGeometry x="419" y="104" width="120" height="60" as="geometry" />
        </mxCell>
        <mxCell id="RdHmfQNiQmY0ozg8PlWF-33" value="" style="edgeStyle=none;curved=1;rounded=0;orthogonalLoop=1;jettySize=auto;html=1;fontSize=12;startSize=8;endSize=8;" edge="1" parent="RdHmfQNiQmY0ozg8PlWF-29" source="RdHmfQNiQmY0ozg8PlWF-30" target="RdHmfQNiQmY0ozg8PlWF-32">
          <mxGeometry relative="1" as="geometry" />
        </mxCell>
        <mxCell id="RdHmfQNiQmY0ozg8PlWF-30" value="Retorna Parâmetros" style="whiteSpace=wrap;html=1;" vertex="1" parent="RdHmfQNiQmY0ozg8PlWF-29">
          <mxGeometry x="659" y="104" width="120" height="60" as="geometry" />
        </mxCell>
        <mxCell id="RdHmfQNiQmY0ozg8PlWF-32" value="" style="ellipse;whiteSpace=wrap;html=1;fillColor=#f8cecc;strokeColor=#b85450;" vertex="1" parent="RdHmfQNiQmY0ozg8PlWF-29">
          <mxGeometry x="860" y="112" width="42" height="42" as="geometry" />
        </mxCell>
        <mxCell id="RdHmfQNiQmY0ozg8PlWF-34" value="Backoffice" style="swimlane;horizontal=0;whiteSpace=wrap;html=1;" vertex="1" parent="1">
          <mxGeometry x="-417" y="495" width="1064" height="313" as="geometry" />
        </mxCell>
        <mxCell id="RdHmfQNiQmY0ozg8PlWF-42" value="" style="edgeStyle=none;curved=1;rounded=0;orthogonalLoop=1;jettySize=auto;html=1;fontSize=12;startSize=8;endSize=8;" edge="1" parent="1" source="RdHmfQNiQmY0ozg8PlWF-35" target="RdHmfQNiQmY0ozg8PlWF-41">
          <mxGeometry relative="1" as="geometry" />
        </mxCell>
        <mxCell id="RdHmfQNiQmY0ozg8PlWF-35" value="&lt;div&gt;Separação d&lt;span style=&quot;background-color: initial;&quot;&gt;e Leads&amp;nbsp;&lt;/span&gt;&lt;/div&gt;" style="rounded=0;whiteSpace=wrap;html=1;" vertex="1" parent="1">
          <mxGeometry x="-419" y="1033" width="120" height="60" as="geometry" />
        </mxCell>
        <mxCell id="RdHmfQNiQmY0ozg8PlWF-44" value="" style="edgeStyle=none;curved=1;rounded=0;orthogonalLoop=1;jettySize=auto;html=1;fontSize=12;startSize=8;endSize=8;" edge="1" parent="1" source="RdHmfQNiQmY0ozg8PlWF-41" target="RdHmfQNiQmY0ozg8PlWF-43">
          <mxGeometry relative="1" as="geometry" />
        </mxCell>
        <mxCell id="RdHmfQNiQmY0ozg8PlWF-41" value="&amp;nbsp;Montagem da Base de Leads" style="rounded=0;whiteSpace=wrap;html=1;" vertex="1" parent="1">
          <mxGeometry x="-211" y="1033" width="120" height="60" as="geometry" />
        </mxCell>
        <mxCell id="RdHmfQNiQmY0ozg8PlWF-48" value="" style="edgeStyle=none;curved=1;rounded=0;orthogonalLoop=1;jettySize=auto;html=1;fontSize=12;startSize=8;endSize=8;" edge="1" parent="1" source="RdHmfQNiQmY0ozg8PlWF-43" target="RdHmfQNiQmY0ozg8PlWF-47">
          <mxGeometry relative="1" as="geometry" />
        </mxCell>
        <mxCell id="RdHmfQNiQmY0ozg8PlWF-43" value="&amp;nbsp;Preparação do Arquivo CSV" style="rounded=0;whiteSpace=wrap;html=1;shadow=0;glass=0;" vertex="1" parent="1">
          <mxGeometry x="-4" y="1033" width="131" height="60" as="geometry" />
        </mxCell>
        <mxCell id="RdHmfQNiQmY0ozg8PlWF-47" value="&lt;div&gt;Envio para Serasa (FTP)&lt;/div&gt;&lt;div&gt;&lt;span style=&quot;background-color: initial;&quot;&gt;&amp;nbsp;- Pasta: SOI-INTEGRADAS&amp;nbsp;&lt;/span&gt;&lt;/div&gt;" style="rounded=0;whiteSpace=wrap;html=1;shadow=0;glass=0;" vertex="1" parent="1">
          <mxGeometry x="216" y="1033" width="131" height="60" as="geometry" />
        </mxCell>
        <mxCell id="RdHmfQNiQmY0ozg8PlWF-49" value="&lt;div&gt;Serasa&lt;/div&gt;" style="rounded=0;whiteSpace=wrap;html=1;shadow=0;glass=0;" vertex="1" parent="1">
          <mxGeometry x="216" y="1213" width="131" height="60" as="geometry" />
        </mxCell>
        <mxCell id="RdHmfQNiQmY0ozg8PlWF-59" value="" style="edgeStyle=none;curved=1;rounded=0;orthogonalLoop=1;jettySize=auto;html=1;fontSize=12;startSize=8;endSize=8;" edge="1" parent="1" source="RdHmfQNiQmY0ozg8PlWF-52" target="RdHmfQNiQmY0ozg8PlWF-58">
          <mxGeometry relative="1" as="geometry" />
        </mxCell>
        <mxCell id="RdHmfQNiQmY0ozg8PlWF-52" value="&lt;div&gt;Retorno Serasa (FTP)&lt;/div&gt;&lt;div&gt;&lt;br&gt;&lt;/div&gt;&lt;div&gt;&lt;span style=&quot;background-color: initial;&quot;&gt;&amp;nbsp;- Pasta: RECEBIDOS&lt;/span&gt;&lt;/div&gt;" style="rounded=0;whiteSpace=wrap;html=1;shadow=0;glass=0;" vertex="1" parent="1">
          <mxGeometry x="404" y="1033" width="131" height="60" as="geometry" />
        </mxCell>
        <mxCell id="RdHmfQNiQmY0ozg8PlWF-54" value="" style="endArrow=classic;html=1;rounded=0;fontSize=12;startSize=8;endSize=8;curved=1;" edge="1" parent="1" source="RdHmfQNiQmY0ozg8PlWF-47" target="RdHmfQNiQmY0ozg8PlWF-49">
          <mxGeometry width="50" height="50" relative="1" as="geometry">
            <mxPoint x="42" y="1014" as="sourcePoint" />
            <mxPoint x="92" y="964" as="targetPoint" />
          </mxGeometry>
        </mxCell>
        <mxCell id="RdHmfQNiQmY0ozg8PlWF-55" value="" style="endArrow=classic;html=1;rounded=0;fontSize=12;startSize=8;endSize=8;curved=1;exitX=1;exitY=0.5;exitDx=0;exitDy=0;entryX=0.5;entryY=1;entryDx=0;entryDy=0;" edge="1" parent="1" source="RdHmfQNiQmY0ozg8PlWF-49" target="RdHmfQNiQmY0ozg8PlWF-52">
          <mxGeometry width="50" height="50" relative="1" as="geometry">
            <mxPoint x="419" y="1244" as="sourcePoint" />
            <mxPoint x="469" y="1194" as="targetPoint" />
            <Array as="points">
              <mxPoint x="372" y="1243" />
              <mxPoint x="438" y="1243" />
              <mxPoint x="470" y="1241" />
              <mxPoint x="470" y="1215" />
            </Array>
          </mxGeometry>
        </mxCell>
        <mxCell id="RdHmfQNiQmY0ozg8PlWF-61" value="" style="edgeStyle=none;curved=1;rounded=0;orthogonalLoop=1;jettySize=auto;html=1;fontSize=12;startSize=8;endSize=8;" edge="1" parent="1" source="RdHmfQNiQmY0ozg8PlWF-58" target="RdHmfQNiQmY0ozg8PlWF-60">
          <mxGeometry relative="1" as="geometry" />
        </mxCell>
        <mxCell id="RdHmfQNiQmY0ozg8PlWF-58" value="Importa no Power BI" style="rounded=0;whiteSpace=wrap;html=1;shadow=0;glass=0;" vertex="1" parent="1">
          <mxGeometry x="611" y="1033" width="131" height="60" as="geometry" />
        </mxCell>
        <mxCell id="RdHmfQNiQmY0ozg8PlWF-63" value="" style="edgeStyle=none;curved=1;rounded=0;orthogonalLoop=1;jettySize=auto;html=1;fontSize=12;startSize=8;endSize=8;" edge="1" parent="1" source="RdHmfQNiQmY0ozg8PlWF-60" target="RdHmfQNiQmY0ozg8PlWF-62">
          <mxGeometry relative="1" as="geometry" />
        </mxCell>
        <mxCell id="RdHmfQNiQmY0ozg8PlWF-60" value="Análise no Power BI&lt;div&gt;- Validação do CNPJ&lt;/div&gt;" style="rounded=0;whiteSpace=wrap;html=1;shadow=0;glass=0;" vertex="1" parent="1">
          <mxGeometry x="611" y="1213" width="131" height="60" as="geometry" />
        </mxCell>
        <mxCell id="RdHmfQNiQmY0ozg8PlWF-62" value="Envio dos CNPJs Aprovados para o Salesforce" style="rounded=0;whiteSpace=wrap;html=1;shadow=0;glass=0;" vertex="1" parent="1">
          <mxGeometry x="611" y="1393" width="131" height="60" as="geometry" />
        </mxCell>
        <mxCell id="RdHmfQNiQmY0ozg8PlWF-64" value="" style="verticalLabelPosition=bottom;aspect=fixed;html=1;shape=mxgraph.salesforce.learning;" vertex="1" parent="1">
          <mxGeometry x="724" y="1417" width="40" height="40" as="geometry" />
        </mxCell>
        <mxCell id="RdHmfQNiQmY0ozg8PlWF-66" value="" style="image;aspect=fixed;html=1;points=[];align=center;fontSize=12;image=img/lib/azure2/analytics/Power_BI_Embedded.svg;" vertex="1" parent="1">
          <mxGeometry x="724" y="1235" width="30.75" height="41" as="geometry" />
        </mxCell>
        <mxCell id="RdHmfQNiQmY0ozg8PlWF-77" value="Frontoffice" style="swimlane;horizontal=0;whiteSpace=wrap;html=1;" vertex="1" parent="1">
          <mxGeometry x="-491" y="969" width="1304" height="540" as="geometry" />
        </mxCell>
        <mxCell id="RdHmfQNiQmY0ozg8PlWF-78" value="Backoffice" style="swimlane;horizontal=0;whiteSpace=wrap;html=1;" vertex="1" parent="1">
          <mxGeometry x="-491" y="1509" width="1304" height="449" as="geometry" />
        </mxCell>
      </root>
    </mxGraphModel>
  </diagram>
</mxfile>
